<svg id="图层_1" data-name="图层 1" xmlns="http://www.w3.org/2000/svg" viewBox="0 0 56 56"><title>血压</title><path d="M31.92,34.47V12A6.52,6.52,0,0,0,25.69,5.5a6.32,6.32,0,0,0-6.12,6.41V34.23a9.26,9.26,0,1,0,15.32,6.87A8.65,8.65,0,0,0,31.92,34.47ZM25.69,48A7,7,0,0,1,19,41.13a6.59,6.59,0,0,1,2.73-5.71V11.32c0-1.86,2.17-3.68,4-3.68s4.09,1.82,4.09,3.68V35.66a7.45,7.45,0,0,1,2.61,5.47A6.89,6.89,0,0,1,25.69,48Zm9.24-34.74h3.51a1.08,1.08,0,0,0,0-2.17H34.93a1.08,1.08,0,0,0,0,2.17Zm3.51,1.08H34.93a1.08,1.08,0,0,0,0,2.17h3.51a1.08,1.08,0,0,0,0-2.17Zm0,3.25H34.93a1.08,1.08,0,0,0,0,2.17h3.51a1.08,1.08,0,0,0,0-2.17ZM29.16,37.18,27.77,36v-5.7a2,2,0,0,0-2-2.14,2.14,2.14,0,0,0-2.14,2.14V36l-1.39,1.16a5.22,5.22,0,1,0,6.93,0Z"/></svg>